HIERARCHY
ROOT Hips
{
	OFFSET 0.00000 0.00000 0.00000
	CHANNELS 6 Xposition Yposition Zposition Zrotation Yrotation Xrotation 
	JOINT LHipJoint
	{
		OFFSET 0 0 0
		CHANNELS 3 Zrotation Yrotation Xrotation
		JOINT LeftHip
		{
			OFFSET 1.17584 -1.63585 1.00361
			CHANNELS 3 Zrotation Yrotation Xrotation
			JOINT LeftKnee
			{
				OFFSET 2.23889 -6.15131 0.00000
				CHANNELS 3 Zrotation Yrotation Xrotation
				JOINT LeftAnkle
				{
					OFFSET 2.65161 -7.28525 0.00000
					CHANNELS 3 Zrotation Yrotation Xrotation
					JOINT LeftToe
					{
						OFFSET 0.24898 -0.68407 1.57235
						CHANNELS 3 Zrotation Yrotation Xrotation
						End Site
						{
							OFFSET 0.00000 -0.00000 0.85838
						}
					}
				}
			}
		}
	}
	JOINT RHipJoint
	{
		OFFSET 0 0 0
		CHANNELS 3 Zrotation Yrotation Xrotation
		JOINT RightHip
		{
			OFFSET -1.15592 -1.63585 1.00361
			CHANNELS 3 Zrotation Yrotation Xrotation
			JOINT RightKnee
			{
				OFFSET -2.34071 -6.43104 0.00000
				CHANNELS 3 Zrotation Yrotation Xrotation
				JOINT RightAnkle
				{
					OFFSET -2.59113 -7.11908 0.00000
					CHANNELS 3 Zrotation Yrotation Xrotation
					JOINT RightToe
					{
						OFFSET -0.17867 -0.49089 1.70981
						CHANNELS 3 Zrotation Yrotation Xrotation
						End Site
						{
							OFFSET -0.00000 -0.00000 0.89861
						}
					}
				}
			}
		}
	}
	JOINT lowerback
	{
		OFFSET 0 0 0
		CHANNELS 3 Zrotation Yrotation Xrotation
		JOINT Chest
		{
			OFFSET -0.02255 1.90764 -0.16605
			CHANNELS 3 Zrotation Yrotation Xrotation
			JOINT Chest2
			{
				OFFSET -0.00365 1.92150 -0.04898
				CHANNELS 3 Zrotation Yrotation Xrotation
				JOINT lowerneck
				{
					OFFSET 0 0 0
					CHANNELS 3 Zrotation Yrotation Xrotation
					JOINT Neck
					{
						OFFSET 0.00372 1.59170 0.08694
						CHANNELS 3 Zrotation Yrotation Xrotation
						JOINT Head
						{
							OFFSET 0.12558 1.58643 -0.08078
							CHANNELS 3 Zrotation Yrotation Xrotation
							End Site
							{
								OFFSET 0.04211 1.60835 -0.03803
							}
						}
					}
				}
				JOINT LeftCollar
				{
					OFFSET 0 0 0
					CHANNELS 3 Zrotation Yrotation Xrotation
					JOINT LeftShoulder
					{
						OFFSET 3.69324 0.96316 0.19077
CHANNELS 3 Zrotation Xrotation Yrotation
						JOINT LeftElbow
						{
OFFSET 0 -4.877960 -0.000000
CHANNELS 3 Zrotation Xrotation Yrotation
							JOINT LeftWrist
							{
OFFSET 0 -3.231690 0.000000
CHANNELS 3 Zrotation Xrotation Yrotation
								JOINT lhand
								{
									OFFSET 0 0 0
CHANNELS 3 Zrotation Xrotation Yrotation
									JOINT LFingers
									{
OFFSET 0 -0.731320 0.000000
CHANNELS 3 Zrotation Xrotation Yrotation
										End Site
										{
OFFSET 0 -0.589610 0.000000
										}
									}
								}
								JOINT LThumb
								{
OFFSET 0 0.000000 0.000000
CHANNELS 3 Zrotation Xrotation Yrotation
									End Site
									{
OFFSET 0 -0.598610 0.598610
									}
								}
							}
						}
					}
				}
				JOINT RightCollar
				{
					OFFSET 0 0 0
					CHANNELS 3 Zrotation Yrotation Xrotation
					JOINT RightShoulder
					{
						OFFSET -3.66103 0.75145 0.08281
CHANNELS 3 Zrotation Xrotation Yrotation
						JOINT RightElbow
						{
OFFSET 0 -4.914300 0.000000
CHANNELS 3 Zrotation Xrotation Yrotation
							JOINT RightWrist
							{
OFFSET 0 -3.290930 0.000000
CHANNELS 3 Zrotation Xrotation Yrotation
								JOINT rhand
								{
									OFFSET 0 0 0
CHANNELS 3 Zrotation Xrotation Yrotation
									JOINT RFingers
									{
OFFSET 0 -0.545120 0.000000
CHANNELS 3 Zrotation Xrotation Yrotation
										End Site
										{
OFFSET 0 -0.439490 0.000000
										}
									}
								}
								JOINT RThumb
								{
OFFSET 0 0.000000 0.000000
CHANNELS 3 Zrotation Xrotation Yrotation
									End Site
									{
OFFSET 0 -0.446200 0.446200
									}
								}
							}
						}
					}
				}
			}
		}
	}
}
MOTION
Frames: 8
Frame Time: 0.008333333333333333
21.774731 5.880910 -14.587657 -55.123515 146.824362 -150.933533 0.000000 0.000000 0.000000 12.625522 33.788235 16.543546 26.405228 18.986420 109.036971 0.284929 -12.734501 -12.275283 4.260727 -12.499421 -37.522561 0.000000 0.000000 0.000000 0.033413 25.186557 -9.686725 -31.492933 -16.479772 125.630827 -0.230965 2.541584 -8.554291 -3.299120 -11.163272 32.833660 -1.405596 -9.589472 -12.846917 9.538964 -12.110301 -6.322473 8.904462 -5.750450 2.796480 -8.050644 -7.949441 -17.504454 21.478122 -10.602632 3.877857 7.093662 -3.828389 5.825213 0.000000 0.000000 0.000000 101.385576 -36.822455 28.854887 126.609425 -54.241439 91.087012 69.525283 -79.451111 47.610072 0.000000 0.000000 0.000000 -7.125000 0.000000 0.000000 11.464876 -41.441277 16.311896 0.000000 0.000000 0.000000 -14.217041 -19.395919 -36.272175 -150.979468 -40.038955 -109.226079 -137.734882 -175.143721 -22.207531 0.000000 0.000000 0.000000 7.125000 0.000000 0.000000 -171.872929 0.192749 171.762431
21.755146 5.908558 -14.572433 -55.188030 146.940908 -150.743778 0.000000 0.000000 0.000000 11.413493 33.780022 16.000695 26.195330 19.053509 108.392997 0.235502 -12.250924 -11.490850 4.217930 -12.444911 -37.324630 0.000000 0.000000 0.000000 -0.781708 24.852553 -10.150613 -31.402686 -16.541453 125.313329 -0.220258 2.857682 -8.340337 -3.559759 -11.549204 34.156747 -0.895255 -9.552786 -13.469064 9.495539 -12.106755 -6.447952 8.502538 -5.741308 2.880191 -7.997581 -7.846423 -17.541019 21.363740 -10.527936 4.211698 7.059262 -3.780528 5.909784 0.000000 0.000000 0.000000 105.062630 -39.090693 30.119124 117.606707 -56.820033 83.641103 69.445048 -78.805808 47.749990 0.000000 0.000000 0.000000 -7.125000 0.000000 0.000000 11.336548 -41.480785 16.126984 0.000000 0.000000 0.000000 -14.086756 -19.568114 -36.055695 -151.090407 -39.940228 -109.297371 -137.802889 -175.068076 -22.079634 0.000000 0.000000 0.000000 7.125000 0.000000 0.000000 -171.885051 0.374747 171.749160
21.741991 5.932681 -14.558883 -55.191256 147.064800 -150.705559 0.000000 0.000000 0.000000 10.189187 33.628653 15.564863 25.958611 19.126357 107.669297 0.174662 -11.710956 -10.497417 4.142279 -12.347303 -36.972007 0.000000 0.000000 0.000000 -1.595070 24.442173 -10.408061 -31.316169 -16.599863 125.009878 -0.209264 3.206402 -8.130370 -3.772130 -11.850258 35.205124 -0.465871 -9.490442 -13.881263 9.422459 -12.063928 -6.557666 8.151855 -5.714309 2.871810 -8.138129 -7.788246 -17.514896 21.371216 -10.479071 4.494546 7.096745 -3.747914 5.992624 0.000000 0.000000 0.000000 109.630830 -41.786506 32.027971 105.284110 -59.003116 73.183179 69.027820 -77.220298 47.953530 0.000000 0.000000 0.000000 -7.125000 0.000000 0.000000 11.029372 -41.324264 15.681593 0.000000 0.000000 0.000000 -14.028878 -19.686626 -36.029157 -151.171149 -39.868155 -109.349185 -137.721824 -175.170404 -21.685791 0.000000 0.000000 0.000000 7.125000 0.000000 0.000000 -171.751170 0.786911 171.550852
21.731875 5.953872 -14.547325 -55.146283 147.214469 -150.705472 0.000000 0.000000 0.000000 8.874834 33.388410 15.106884 25.690790 19.205077 106.853424 0.103526 -11.096797 -9.251708 3.994895 -12.153535 -36.277393 0.000000 0.000000 0.000000 -2.465692 24.010727 -10.623980 -31.234233 -16.654571 124.723532 -0.195516 3.586028 -7.884133 -3.944510 -12.086141 36.037565 -0.058744 -9.441564 -14.250506 9.344556 -12.039613 -6.654644 7.810358 -5.697627 2.860266 -8.356032 -7.729330 -17.498975 21.394669 -10.411522 4.756596 7.155399 -3.709216 6.073267 0.000000 0.000000 0.000000 114.716772 -44.471693 34.382796 90.395404 -59.990485 60.342716 68.626835 -75.222487 48.146979 0.000000 0.000000 0.000000 -7.125000 0.000000 0.000000 10.736942 -41.175688 15.258058 0.000000 0.000000 0.000000 -14.053561 -19.873938 -36.109668 -151.179065 -39.861025 -109.354237 -137.399101 -175.350871 -21.121260 0.000000 0.000000 0.000000 7.125000 0.000000 0.000000 -171.437100 1.273652 171.150241
21.730154 5.976289 -14.532331 -55.077707 147.320967 -151.006147 0.000000 0.000000 0.000000 7.792172 32.955464 15.009028 25.349111 19.299159 105.817620 0.008136 -10.505607 -7.464704 3.746082 -11.813130 -35.076128 0.000000 0.000000 0.000000 -3.148374 23.489361 -10.413827 -31.139574 -16.716956 124.393897 -0.180492 3.923781 -7.624061 -4.089960 -12.278836 36.726164 0.142274 -9.485516 -14.264972 9.332778 -12.113639 -6.674409 7.673727 -5.732228 2.813715 -8.611956 -7.664863 -17.588193 21.325771 -10.322013 5.054842 7.191437 -3.661714 6.173642 0.000000 0.000000 0.000000 119.518573 -46.681159 36.656606 75.258976 -59.050870 47.284645 68.592696 -73.207661 48.165772 0.000000 0.000000 0.000000 -7.125000 0.000000 0.000000 10.710606 -41.165008 15.219918 0.000000 0.000000 0.000000 -14.200551 -20.270555 -36.240310 -151.083850 -39.946003 -109.293206 -136.787962 -175.459134 -20.541390 0.000000 0.000000 0.000000 7.125000 0.000000 0.000000 -170.947710 1.627694 170.576698
21.728524 6.006897 -14.509787 -55.037182 147.405446 -151.429791 0.000000 0.000000 0.000000 6.785291 32.401915 14.992780 24.919952 19.408610 104.522825 -0.105188 -9.915913 -4.923888 3.424942 -11.350638 -33.474812 0.000000 0.000000 0.000000 -3.691450 22.954022 -10.001919 -31.020437 -16.794407 123.980702 -0.159704 4.209012 -7.249556 -4.227832 -12.457242 37.369827 0.283887 -9.606884 -14.203505 9.387879 -12.281407 -6.665232 7.628911 -5.812820 2.797482 -8.817650 -7.572751 -17.747159 21.114793 -10.199450 5.426497 7.174931 -3.601241 6.289135 0.000000 0.000000 0.000000 123.472664 -48.352012 38.367319 61.864666 -56.662839 35.922458 68.757281 -71.048327 48.050516 0.000000 0.000000 0.000000 -7.125000 0.000000 0.000000 10.854849 -41.200242 15.428294 0.000000 0.000000 0.000000 -14.384940 -20.866419 -36.323349 -150.923943 -40.088073 -109.190348 -135.998580 -175.341503 -20.142140 0.000000 0.000000 0.000000 7.125000 0.000000 0.000000 -170.390551 1.669690 169.974029
21.726024 6.047642 -14.478164 -55.004360 147.485289 -151.926923 0.000000 0.000000 0.000000 5.803421 31.718713 14.978795 24.397170 19.529518 102.954330 -0.208211 -9.296682 -1.449875 3.077201 -10.817802 -31.669266 0.000000 0.000000 0.000000 -4.134552 22.427557 -9.440135 -30.873555 -16.888299 123.473816 -0.129275 4.455453 -6.664227 -4.362701 -12.627903 37.991413 0.356825 -9.799523 -14.133976 9.499938 -12.536296 -6.633777 7.662323 -5.936167 2.840023 -8.983653 -7.452850 -17.969319 20.789834 -10.044049 5.879107 7.117493 -3.526845 6.424519 0.000000 0.000000 0.000000 126.470515 -49.580552 39.431449 50.582191 -53.177258 26.652613 68.817832 -68.338495 47.795834 0.000000 0.000000 0.000000 -7.125000 0.000000 0.000000 11.052952 -41.065815 15.712213 0.000000 0.000000 0.000000 -14.550511 -21.662813 -36.316619 -150.727440 -40.261652 -109.063554 -135.124664 -174.979406 -19.973033 0.000000 0.000000 0.000000 7.125000 0.000000 0.000000 -169.833495 1.381774 169.424972
21.723239 6.098085 -14.436941 -54.965210 147.579791 -152.436987 0.000000 0.000000 0.000000 4.828647 30.893872 14.870516 23.779344 19.653013 101.112078 -0.225356 -8.526761 3.138136 2.735237 -10.251307 -29.796611 0.000000 0.000000 0.000000 -4.523740 21.934361 -8.831830 -30.703385 -16.994730 122.889901 -0.086108 4.676791 -5.740684 -4.482587 -12.776241 38.536557 0.377096 -10.035443 -14.125352 9.627754 -12.843932 -6.609793 7.720205 -6.085203 2.929800 -9.145422 -7.327245 -18.153270 20.450730 -9.880758 6.351502 7.056737 -3.452758 6.557941 0.000000 0.000000 0.000000 128.621937 -50.569142 39.900100 41.328749 -48.773856 19.453561 68.327002 -64.625520 47.486089 0.000000 0.000000 0.000000 -7.125000 0.000000 0.000000 11.063425 -40.498761 15.718877 0.000000 0.000000 0.000000 -14.642983 -22.576880 -36.270972 -150.530256 -40.434500 -108.935866 -134.188815 -174.380505 -20.025047 0.000000 0.000000 0.000000 7.125000 0.000000 0.000000 -169.290510 0.774538 168.953616
